<svg xmlns="http://www.w3.org/2000/svg" width="800" height="600" viewBox="0 0 800 600" role="img" aria-label="Interior suite blueprint">
  <rect width="800" height="600" fill="#0f2a47"/>
  <g stroke="#3b82c4" stroke-width="1" opacity="0.35">
    <path d="M0 60 H800 M0 120 H800 M0 180 H800 M0 240 H800 M0 300 H800 M0 360 H800 M0 420 H800 M0 480 H800 M0 540 H800"/>
    <path d="M60 0 V600 M120 0 V600 M180 0 V600 M240 0 V600 M300 0 V600 M360 0 V600 M420 0 V600 M480 0 V600 M540 0 V600 M600 0 V600 M660 0 V600 M720 0 V600"/>
  </g>
  <g fill="none" stroke="#7db8e8" stroke-width="4">
    <rect x="190" y="200" width="420" height="240"/>
    <rect x="230" y="350" width="150" height="70"/>
    <rect x="430" y="250" width="140" height="50"/>
    <path d="M230 320 H380 M450 360 H560"/>
    <circle cx="305" cy="290" r="26"/>
  </g>
  <text x="400" y="520" font-family="Arial, sans-serif" font-size="30" font-weight="bold" fill="#cfe4f7" text-anchor="middle" letter-spacing="2">INTERIOR</text>
</svg>
