<svg xmlns="http://www.w3.org/2000/svg" width="800" height="600" viewBox="0 0 800 600" role="img" aria-label="Renovation loft blueprint">
  <rect width="800" height="600" fill="#0f2a47"/>
  <g stroke="#3b82c4" stroke-width="1" opacity="0.35">
    <path d="M0 60 H800 M0 120 H800 M0 180 H800 M0 240 H800 M0 300 H800 M0 360 H800 M0 420 H800 M0 480 H800 M0 540 H800"/>
    <path d="M60 0 V600 M120 0 V600 M180 0 V600 M240 0 V600 M300 0 V600 M360 0 V600 M420 0 V600 M480 0 V600 M540 0 V600 M600 0 V600 M660 0 V600 M720 0 V600"/>
  </g>
  <g fill="none" stroke="#7db8e8" stroke-width="4">
    <path d="M200 430 V230 H600 V430"/>
    <path d="M200 230 L260 180 H540 L600 230"/>
    <path d="M260 180 V430 M340 180 V430 M420 180 V430 M500 180 V430"/>
    <rect x="280" y="320" width="60" height="110"/>
  </g>
  <text x="400" y="520" font-family="Arial, sans-serif" font-size="30" font-weight="bold" fill="#cfe4f7" text-anchor="middle" letter-spacing="2">RENOVATION</text>
</svg>
