<svg xmlns="http://www.w3.org/2000/svg" width="800" height="600" viewBox="0 0 800 600" role="img" aria-label="Construction team reviewing blueprints on site">
  <defs>
    <linearGradient id="sky" x1="0" y1="0" x2="0" y2="1">
      <stop offset="0" stop-color="#1f4d78"/>
      <stop offset="1" stop-color="#0f2a47"/>
    </linearGradient>
  </defs>
  <rect width="800" height="600" fill="url(#sky)"/>
  <g stroke="#3b82c4" stroke-width="1" opacity="0.25">
    <path d="M0 80 H800 M0 160 H800 M0 240 H800 M0 320 H800 M0 400 H800 M0 480 H800 M0 560 H800"/>
    <path d="M80 0 V600 M160 0 V600 M240 0 V600 M320 0 V600 M400 0 V600 M480 0 V600 M560 0 V600 M640 0 V600 M720 0 V600"/>
  </g>
  <g fill="none" stroke="#7db8e8" stroke-width="4">
    <rect x="120" y="180" width="180" height="300"/>
    <path d="M120 180 H300 M120 240 H300 M120 300 H300 M120 360 H300 M120 420 H300"/>
    <rect x="360" y="120" width="220" height="360"/>
    <path d="M360 120 L470 60 L580 120"/>
    <path d="M470 120 V480 M360 240 H580 M360 360 H580"/>
  </g>
  <g stroke="#f0b429" stroke-width="5" fill="none">
    <path d="M620 300 l60 -40 60 40"/>
    <path d="M620 300 v160 h120 v-160"/>
  </g>
  <circle cx="680" cy="220" r="34" fill="#f0b429"/>
  <text x="400" y="540" font-family="Arial, sans-serif" font-size="26" font-weight="bold" fill="#cfe4f7" text-anchor="middle" letter-spacing="2">ON-SITE EXCELLENCE</text>
</svg>
