<svg xmlns="http://www.w3.org/2000/svg" width="1600" height="120" viewBox="0 0 1600 120" preserveAspectRatio="none">
  <defs>
    <linearGradient id="base" x1="0" y1="0" x2="1" y2="1">
      <stop offset="0" stop-color="#f7f5f1"/>
      <stop offset="0.5" stop-color="#efece6"/>
      <stop offset="1" stop-color="#f4f1ea"/>
    </linearGradient>
    <linearGradient id="gold" x1="0" y1="0" x2="1" y2="0">
      <stop offset="0" stop-color="#d9b24c" stop-opacity="0"/>
      <stop offset="0.5" stop-color="#caa23c" stop-opacity="0.9"/>
      <stop offset="1" stop-color="#b8901f" stop-opacity="0"/>
    </linearGradient>
    <linearGradient id="gold2" x1="0" y1="0" x2="1" y2="0">
      <stop offset="0" stop-color="#e6c878" stop-opacity="0"/>
      <stop offset="0.5" stop-color="#d4ad4a" stop-opacity="0.7"/>
      <stop offset="1" stop-color="#c79a2c" stop-opacity="0"/>
    </linearGradient>
  </defs>
  <rect width="1600" height="120" fill="url(#base)"/>
  <path d="M-40 30 C 200 10, 380 60, 560 36 S 980 5, 1180 44 1640 20 1700 38" fill="none" stroke="#dcd6cb" stroke-width="14" opacity="0.6"/>
  <path d="M-40 88 C 240 70, 460 104, 700 82 S 1080 60, 1320 96 1700 78" fill="none" stroke="#e2ddd3" stroke-width="18" opacity="0.5"/>
  <path d="M-40 22 C 180 6, 360 48, 540 26 S 960 -4, 1180 36 1700 14" fill="none" stroke="url(#gold)" stroke-width="3"/>
  <path d="M-40 60 C 260 44, 480 78, 720 56 S 1100 34, 1340 70 1700 52" fill="none" stroke="url(#gold2)" stroke-width="2"/>
  <path d="M-40 98 C 220 84, 440 112, 680 92 S 1060 72, 1300 104 1700 88" fill="none" stroke="url(#gold)" stroke-width="2.5"/>
</svg>
